<?xml version="1.0" encoding="utf-8"?>
<!-- Generator: Adobe Illustrator 25.4.1, SVG Export Plug-In . SVG Version: 6.00 Build 0)  -->
<svg version="1.1" id="katman_1" xmlns="http://www.w3.org/2000/svg" xmlns:xlink="http://www.w3.org/1999/xlink" x="0px" y="0px"
	 viewBox="0 0 402.6 87.6" style="enable-background:new 0 0 402.6 87.6;" xml:space="preserve">
<style type="text/css">
	.st0{fill:#FFFFFF;}
</style>
<g>
	<path class="st0" d="M46.7,6.2C20.9,6.2,0,23,0,43.8s20.9,37.6,46.7,37.6s46.7-16.8,46.7-37.6S72.5,6.2,46.7,6.2 M69.2,38.7
		c-3.1-3.5-6.8-7-11-10.1s-8.4-5.7-12.6-7.7c5.1-3.7,10.2-5.9,14.6-6.2c3.2,0.9,6.3,2.2,9.1,3.7C72.5,22.6,72.4,30.2,69.2,38.7
		 M74.3,66.1c-3.8,5-12.5,5.2-22.4,1.6c3.8-3.1,7.4-7,10.8-11.4c2.9-3.8,5.4-7.8,7.3-11.7C76,53,78,61.2,74.3,66.1 M60.3,54.5
		c-3.6,4.7-7.6,8.7-11.7,11.8c-4.3-1.9-8.7-4.5-13.1-7.8s-8.1-6.9-11.2-10.6c1.9-4.8,4.7-9.8,8.4-14.6c3.1-4.1,6.6-7.6,10-10.5
		c4.4,1.9,9.1,4.6,13.5,8c4.5,3.4,8.4,7.2,11.5,11C66,46,63.5,50.3,60.3,54.5 M25.6,71.5C21,68,20.4,60.3,23.3,51.3
		c3,3.3,6.6,6.6,10.6,9.6c3.9,3,8,5.4,12,7.4C37.9,73.5,30.2,75,25.6,71.5 M17.7,23.4c3.7-4.9,12.2-5.2,22-1.7
		c-3.2,2.9-6.3,6.2-9.2,10c-3.4,4.5-6.2,9.1-8.2,13.6C16.1,36.8,13.9,28.4,17.7,23.4 M52.5,13.1c-3.3,1.5-6.7,3.7-10.1,6.4
		c-5-2.1-9.8-3.3-14.1-3.7c5.4-2,11.3-3.1,17.7-3.1C48.2,12.6,50.4,12.8,52.5,13.1 M4.8,44.7c0-6.6,2.6-12.7,6.9-17.8
		c-0.4,6.2,3,14,9.2,21.6c-3,7.7-3.8,14.9-2.2,20.2C10.2,62.8,4.8,54.3,4.8,44.7 M46,76.9c-2.9,0-5.8-0.3-8.6-0.7
		c3.7-1.3,7.7-3.4,11.7-6.3c5.2,2.2,10.2,3.5,14.6,3.9C58.3,75.7,52.3,76.9,46,76.9 M80.3,62.6c0.4-6-2.8-13.7-8.8-21.2
		c3.1-7.1,4.4-13.9,3.7-19.4c7.5,5.8,12.1,13.9,12.1,22.7C87.2,51.3,84.6,57.5,80.3,62.6"/>
	<g>
		<path class="st0" d="M118.2,14.3c0.3,0.1,0.7,0.3,1.1,0.1l59.8-9c0.8-0.1,1.4-0.5,1.6-1.1c0.3-0.7,0.4-1.2,0.3-2
			c-0.1-0.7-0.4-1.2-1-1.8s-1.1-0.7-1.8-0.5c-0.1,0-1,0.3-2.2,0.4c-1.2,0.3-2.9,0.5-4.8,1s-4.2,0.8-6.8,1.4c-2.6,0.5-5.2,1.1-8,1.6
			c-2.9,0.5-5.7,1.1-8.7,1.8c-3,0.5-5.8,1.2-8.6,1.8c-2.9,0.5-5.4,1.1-7.9,1.6c-2.4,0.5-4.8,1-6.7,1.4c-1.9,0.4-3.4,0.7-4.6,1
			c-1.1,0.3-1.8,0.4-1.9,0.4c-0.4,0-0.7,0.3-0.7,0.5c-0.1,0.3-0.1,0.5,0,0.8C117.7,13.9,117.9,14.2,118.2,14.3"/>
		<path class="st0" d="M171.3,63.5c-0.5-0.5-1.1-0.7-1.8-0.5c-0.1,0-1,0.3-2.2,0.4c-1.2,0.3-2.9,0.5-4.8,1c-1.9,0.4-4.2,0.8-6.8,1.4
			c-2.6,0.5-5.2,1.1-8,1.6c-2.9,0.5-5.7,1.1-8.7,1.8c-3,0.5-5.8,1.2-8.6,1.8c-2.9,0.5-5.4,1.1-7.9,1.6c-0.3,0-0.5,0.1-0.8,0.1
			l7.7-27.7l29.8-4.5c0.8-0.1,1.4-0.5,1.6-1.1c0.3-0.7,0.4-1.2,0.3-2c-0.1-0.7-0.4-1.2-1-1.8c-0.5-0.5-1.1-0.7-1.8-0.5
			c-0.1,0-1,0.3-2.2,0.4c-1.2,0.3-2.9,0.5-4.8,1s-4.2,0.8-6.8,1.4c-2.6,0.5-5.2,1.1-8,1.6c-1.9,0.4-3.9,0.8-6,1.2l6.8-24.6
			c0.3-0.8,0.1-1.6-0.3-2.2c-0.4-0.7-1-1.1-1.6-1.4c-0.7-0.3-1.4-0.3-2,0c-0.7,0.3-1.1,0.7-1.2,1.5c0,0.3-0.3,1.1-0.5,2.4
			c-0.3,1.4-0.7,3.1-1.2,5.3s-1.1,4.8-1.8,7.6c-0.7,2.9-1.4,5.8-2,9c-0.3,1.1-0.5,2.2-0.8,3.3c-2.2,0.4-4.3,1-6.5,1.4
			c-2.9,0.5-5.4,1.1-7.9,1.6c-2.4,0.5-4.8,1-6.7,1.4c-1.9,0.4-3.4,0.7-4.6,1c-1.1,0.3-1.8,0.4-1.9,0.4c-0.4,0-0.7,0.3-0.7,0.5
			c-0.1,0.3-0.1,0.5,0,0.8c0.1,0.3,0.3,0.5,0.7,0.7c0.3,0.1,0.7,0.3,1.1,0.1l25.7-3.8c-0.1,0.8-0.4,1.6-0.5,2.4
			c-0.8,3.3-1.5,6.5-2.2,9.6c-0.7,3.1-1.4,6.1-2,9c-0.5,2.4-1.1,4.8-1.6,6.7c-1,0.1-1.8,0.4-2.6,0.5c-1.9,0.4-3.4,0.7-4.6,1
			c-1.1,0.3-1.8,0.4-1.9,0.4c-0.4,0-0.7,0.3-0.7,0.5c-0.1,0.3-0.1,0.5,0,0.8c0.1,0.3,0.3,0.5,0.7,0.7c0.3,0.1,0.7,0.3,1.1,0.1
			l7.5-1.1c-0.3,1.1-0.5,2-0.7,2.9c-0.3,1.2-0.4,2-0.4,2.2c-0.1,0.4,0,0.8,0.1,1c0.3,0.3,0.4,0.4,0.8,0.4c0.3,0,0.5,0,1-0.3
			c0.3-0.1,0.5-0.5,0.7-1l1.6-5.7l49.5-7.5c0.8-0.1,1.4-0.5,1.6-1.1c0.3-0.7,0.4-1.2,0.3-2C172.2,64.6,171.9,63.9,171.3,63.5"/>
		<path class="st0" d="M291.2,64.5c0.4,0,0.8-0.4,1.1-1s0.5-1.2,0.7-1.9s0.1-1.2,0-1.8c-0.1-0.5-0.3-0.7-0.7-0.7
			c-0.1,0-0.5,0.1-1.2,0.3c-0.7,0.1-1.5,0.3-2.6,0.5c-1.1,0.3-2.3,0.5-3.7,0.8c-1.4,0.3-2.9,0.5-4.3,1c-1.5,0.3-3,0.7-4.6,1
			c-1.6,0.3-3.1,0.7-4.6,1c-1.2,0.3-2.4,0.5-3.5,0.7l16.6-59.7c0.3-0.8,0.1-1.6-0.3-2.2c-0.4-0.7-1-1.1-1.6-1.4
			c-0.7-0.3-1.4-0.3-2,0c-0.7,0.3-1.1,0.7-1.2,1.5c0,0.3-0.3,1.1-0.5,2.4s-0.7,3.1-1.2,5.3s-1.1,4.8-1.8,7.6c-0.7,2.9-1.4,5.8-2,9
			s-1.5,6.4-2.2,9.6c-0.8,3.3-1.5,6.5-2.2,9.6s-1.4,6.1-2,9c-0.7,2.9-1.2,5.3-1.8,7.3c-0.1,0.8-0.4,1.6-0.5,2.4
			c-0.4,0.1-1,0.1-1.4,0.3c-1,0.3-1.8,0.4-2.4,0.5c-0.7,0.1-1,0.1-1,0.3c-0.3,0-0.4,0.1-0.5,0.4c-0.1,0.3-0.1,0.5-0.3,0.8
			c0,0.3,0,0.5,0.1,0.8s0.3,0.3,0.4,0.3l4.3-0.5c-0.3,1.2-0.4,1.9-0.4,2c-0.1,0.4,0,0.8,0.1,1c0.3,0.3,0.4,0.4,0.8,0.4
			c0.3,0,0.5,0,1-0.3c0.3-0.1,0.5-0.5,0.7-1l0.7-2.7L291.2,64.5z"/>
		<path class="st0" d="M252.9,34.4c-0.4,0.3-1,0.8-1.5,1.6L241,49.9c0.1-1.1,0.4-2.2,0.8-3.5c0.3-1.1,0.7-2.4,1.1-3.9
			c0.4-1.5,1.1-3.3,1.8-5c0.4-1.2,0.7-2,0.7-2.9c0-0.7-0.1-1.2-0.5-1.5s-1-0.3-1.6-0.1c-0.7,0.3-1.5,0.7-2.3,1.5
			c-0.4,0.4-1,1-1.6,1.5c-0.7,0.5-1.2,1.4-2,2c-0.7,0.8-1.5,1.5-2.2,2.3c-0.8,0.8-1.5,1.6-2.2,2.4c-1.6,1.9-3.4,3.9-5.3,6
			c1-1.9,1.9-3.7,2.9-5.6c0.8-1.6,1.6-3.3,2.6-4.9c1-1.8,1.8-3.3,2.4-4.6c0.7-1.4,1-2.3,0.7-2.9c-0.3-0.7-0.7-1-1.4-0.8
			c-0.7,0-1.5,0.4-2.3,1c-0.8,0.7-1.5,1.5-1.9,2.6c-0.4,1-0.7,1.8-1,2.7c-1,1.6-1.9,3.3-3,4.9c-1.1,1.8-2.2,3.4-3.4,4.9
			c-1.1,1.5-2.3,3-3.4,4.3c-1.1,1.4-2.2,2.4-3.1,3.4c-1,1-1.9,1.6-2.7,2c-0.8,0.4-1.5,0.7-1.9,0.4c-0.3-0.1-0.5-0.4-0.7-0.8
			c-0.1-0.4-0.1-1.1-0.1-1.9c0-0.8,0.1-1.6,0.3-2.6c0.1-1,0.4-2,0.7-3c0.5,0.5,1.2,0.8,2.3,0.8c1.2-0.1,2.4-0.7,3.5-1.6
			c1.1-1,2-2.3,2.9-3.8s1.4-3.1,1.8-4.9c0.4-1.8,0.5-3.4,0.4-5c-0.1-1.1-0.4-2-0.7-2.9c-0.4-0.8-1-1.4-1.5-1.6
			c-0.7-0.3-1.4-0.4-2-0.3c-0.8,0.1-1.6,0.7-2.4,1.4c-1.1,1-2,2.2-3,3.9c-0.3,0.5-0.5,1.2-1,1.9c-1.5,2.6-3,4.9-4.6,6.9
			c-1.6,2.2-3,3.8-4.1,5.2c-0.3-1-0.7-1.9-1-2.9c-0.4-1-0.7-1.9-1.1-2.9c-0.3-1-0.5-1.9-0.7-3c-0.1-1.1-0.1-2.2,0.1-3.3
			c0.5-0.4,1.1-0.8,1.5-1.2c0.4-0.4,0.7-0.8,1-1.4c0.3-0.5,0.4-1.1,0.4-1.8c-0.1-1.1-0.5-1.6-1.4-1.9c-0.8-0.3-1.6-0.1-2.6,0.4
			c-1,0.5-1.8,1.5-2.3,2.9c-0.4,0.8-0.5,1.6-0.7,2.7c0,0,0,0,0,0.1c-0.5,1-1.4,2.2-2.2,3.7c-1,1.5-1.9,3.1-2.9,4.9
			c-1.1,1.8-2.2,3.5-3.3,5.3c-1.1,1.8-2.2,3.5-3.3,5c-1.1,1.5-2,2.9-2.9,4.1c-1,1.1-1.6,1.9-2.3,2.2c-0.1-1.5-0.3-3.1-0.1-5
			c0.1-1.9,0.3-3.9,0.4-5.8c0.3-1.9,0.5-3.8,1-5.6c0.4-1.8,1-3.3,1.5-4.3c2-1.8,4.1-3.4,6.1-4.8c2-1.4,3.9-2.4,5.7-3.4
			c0.7-0.3,0.8-0.7,0.7-1.2c-0.1-0.5-0.7-1-1.5-1.2c-0.8-0.3-1.8-0.3-3,0c-1.2,0.3-2.6,1-4.1,2.2c-1,0.8-2,1.9-3.3,3.1
			c-1.2,1.2-2.4,2.6-3.7,3.9c-1.2,1.4-2.4,2.7-3.5,4.1s-2.2,2.6-3,3.7c0.7-1.8,1.6-3.8,2.6-6.1c1-2.3,1.9-4.6,3-7.1
			c1-2.4,2-4.9,3-7.3c1-2.4,2-4.6,2.9-6.7c1-2,1.8-3.8,2.4-5.3c0.7-1.5,1.4-2.6,1.8-3.3c0.5-0.8,0.7-1.5,0.3-2.2
			c-0.3-0.7-0.8-1-1.6-1.1c-0.8,0-1.8,0.4-2.9,1.2c-1.1,0.8-2.2,2.3-3.3,4.3c-0.5,1.1-1.2,2.6-2.2,4.5c-1,1.9-1.9,3.9-3,6.1
			s-2.2,4.3-3.3,6.4c-1.1,2.2-2,3.9-3,5.6c-0.4,0.8-0.7,1.5-0.8,2c-0.1,0.5,0,1,0.3,1.1s0.5,0.1,1-0.1c0.4-0.3,1-1,1.6-1.9
			c0.4-0.7,0.8-1.4,1.4-2.2c0.4-0.8,0.8-1.6,1.2-2.3s0.7-1.4,1-2c0.3-0.5,0.4-1,0.5-1.1c-0.4,1-0.8,2-1.2,3.4
			c-0.4,1.4-1,2.7-1.4,4.1c-0.4,1.5-1,2.9-1.4,4.5c-0.4,1.5-1,3-1.4,4.3c-0.4,1.4-0.8,2.7-1.2,3.9c-0.4,1.2-0.7,2.2-1,3
			c-0.4,1.5-0.4,2.2,0.1,2.3c0.5,0.1,1.1-0.4,1.6-1.6c1.1-1.5,2.2-2.9,3.4-4.2c1.2-1.4,2.4-2.7,3.7-3.9c-0.3,1.2-0.4,2.6-0.5,4.2
			c-0.1,1.6-0.3,3.1-0.3,4.8c0,1.5,0,3,0,4.5c0.1,1.4,0.1,2.6,0.4,3.5c0.1,1,0.4,1.8,0.8,2c0.4,0.4,0.8,0.5,1.2,0.4
			c0.4-0.1,1-0.3,1.5-0.7c0.5-0.4,1.1-0.8,1.5-1.4c1.1-1.1,2.3-2.6,3.7-4.3c1.4-1.9,2.7-3.9,4.2-6.1c1.5-2.3,2.9-4.6,4.3-7.2
			c1-1.6,1.9-3.3,2.9-4.9c0.1,0.5,0.4,1.2,0.7,1.8c0.5,1.1,1.1,2.2,1.6,3.3s1.1,2,1.5,3c0.4,1,0.5,1.6,0.4,2.3
			c-1.1,0.8-2.2,1.8-3.1,2.6c-0.8,0.8-1.6,1.6-2.3,2.6c-0.8,1-1.2,1.8-1.5,2.6c-0.3,1.2-0.3,2,0,2.7s0.8,1,1.5,1
			c0.7,0,1.6-0.4,2.7-1.1s2.2-1.8,3.3-3.1c1-1.2,1.6-2.3,1.9-3.4s0.4-2,0.4-3.1c1.1-1.1,2.4-2.7,4.2-4.9c0.4-0.4,0.7-1,1.1-1.5
			c-0.1,0.5-0.3,1.1-0.4,1.6c-0.4,2.2-0.7,4.2-0.7,6c0,1.8,0.1,3.3,0.7,4.5c0.4,1.2,1.2,1.9,2.2,1.9c1.5,0.1,3.1-0.3,4.8-1.5
			c1.6-1.2,3.4-2.7,5-4.8c1.5-1.6,2.9-3.7,4.3-5.7c-0.1,0.4-0.3,0.8-0.5,1.2c-0.7,1.6-1.2,3.1-1.6,4.2c-0.4,1.1-0.8,2-1.2,2.9
			c-0.4,0.8-0.5,1.5-0.5,2.2c0,0.7,0.1,1.1,0.4,1.4s0.7,0.1,1.2-0.3s1.2-1.2,2-2.4c0.7-1.2,1.6-2.3,2.6-3.7c1-1.2,2.2-2.6,3.3-3.8
			c1.2-1.2,2.4-2.4,3.7-3.5c1.4-1.1,2.6-2.2,3.8-3c-0.1,0.8-0.3,1.8-0.4,2.6c-0.1,0.8-0.1,1.6-0.3,2.6c-0.1,1-0.1,1.8,0,2.6
			c0.1,1.5,0.4,2.4,0.8,3c0.4,0.5,1,0.8,1.5,0.7c0.5-0.1,1.1-0.4,1.8-1c0.5-0.5,1.1-1.2,1.6-1.9c0.3-0.4,0.5-0.8,1-1.4
			c0.4-0.5,0.8-1.2,1.4-1.9c0.5-0.7,1-1.4,1.6-2.2c0.5-0.8,1.1-1.5,1.6-2.2c1.2-1.8,2.6-3.5,3.9-5.6c0.5-0.8,0.8-1.5,1-2
			c0.1-0.5,0-1-0.3-1.1C253.7,34,253.3,34,252.9,34.4 M215.5,39c0.5-1,1-1.8,1.5-2.4c0.5-0.7,1.1-1.2,1.6-1.6c0.4,1.5,0.4,3,0.1,4.5
			s-0.7,2.9-1.4,3.9c-0.7,1.1-1.4,1.9-2.2,2.3s-1.6,0.4-2.3-0.1c0.4-1.1,0.7-2.2,1.2-3.4C214.5,41.1,215.1,40,215.5,39"/>
		<path class="st0" d="M289.3,54c0.7,0.4,1.5,0.4,2.4,0c0.8-0.4,1.8-1,2.6-1.8s1.6-1.9,2.6-3.1c0.8-1.2,1.5-2.6,2.2-3.9
			c0.7-1.4,1.2-2.7,1.6-4.2c0.4-1.4,0.7-2.7,0.7-3.9c0.1-1.2,0-2.3-0.4-3.1c-0.3-1-1-1.5-1.8-1.9c-1.2-0.4-2.4-0.3-3.7,0.4
			c-1.2,0.8-2.3,1.9-3.4,3.4c-1.1,1.5-2,3.1-2.7,5c-0.8,1.9-1.4,3.8-1.6,5.6s-0.4,3.4-0.1,4.8C287.7,52.6,288.3,53.6,289.3,54
			 M289.8,47.3c0.3-1.1,0.5-2.2,1.1-3.4c0.4-1.2,1-2.2,1.5-3.1c0.5-1,1.1-1.6,1.8-2.2c0.5-0.5,1.2-0.7,1.6-0.5
			c0.7,0.3,1,0.8,1.1,1.6s0,1.8-0.3,2.9s-0.7,2.2-1.2,3.4c-0.5,1.2-1.1,2.3-1.8,3.1c-0.7,1-1.2,1.6-1.9,2.2
			c-0.7,0.5-1.2,0.7-1.6,0.4s-0.7-0.7-0.8-1.5C289.4,49.4,289.6,48.4,289.8,47.3"/>
		<path class="st0" d="M311.6,24.9c0.5,0.1,1.2,0,2.2-0.4c1-0.5,1.8-1.1,2.4-1.9c0.7-0.8,1.2-1.6,1.4-2.6c0.1-1-0.3-1.8-1.4-2.6
			c-0.7-0.4-1.4-0.7-1.9-0.4c-0.5,0.1-1.1,0.4-1.5,1c-0.4,0.5-0.8,1.2-1.1,1.9c-0.3,0.8-0.5,1.5-0.5,2.2c-0.1,0.7-0.1,1.4,0,1.9
			C311,24.5,311.3,24.8,311.6,24.9"/>
		<path class="st0" d="M324.1,24.8c0.4,0,1.1-0.3,1.8-1c0.7-0.7,1.2-1.4,1.6-2.2c0.4-0.8,0.7-1.8,0.5-2.6c-0.1-0.8-0.7-1.5-1.8-1.9
			c-0.7-0.3-1.2-0.3-1.8,0c-0.4,0.3-0.8,0.7-1.1,1.2c-0.3,0.5-0.4,1.2-0.5,1.9c-0.1,0.7-0.1,1.4,0,2c0.1,0.7,0.1,1.2,0.4,1.6
			C323.5,24.5,323.8,24.6,324.1,24.8"/>
		<path class="st0" d="M402.1,34.3c-0.3-0.1-0.5-0.1-1.1,0.3c-0.4,0.3-1,0.8-1.5,1.6c-0.5,1-1.4,2.2-2.2,3.7c-1,1.5-1.9,3.1-2.9,4.9
			c-1.1,1.8-2.2,3.5-3.3,5.3c-1.1,1.8-2.2,3.5-3.3,5c-1.1,1.5-2,2.9-2.9,4.1c-1,1.1-1.6,1.9-2.3,2.2c-0.1-1.5-0.3-3.1-0.1-5
			c0.1-1.9,0.3-3.9,0.4-5.8c0.3-1.9,0.5-3.8,1-5.6c0.4-1.8,1-3.3,1.5-4.3c2-1.8,4.1-3.4,6.1-4.8c2-1.4,3.9-2.4,5.7-3.4
			c0.7-0.3,0.8-0.7,0.7-1.2c-0.1-0.5-0.7-1-1.5-1.2c-0.8-0.3-1.8-0.3-3,0c-1.2,0.3-2.6,1-4.1,2.2c-1,0.8-2,1.9-3.3,3.1
			c-1.2,1.2-2.4,2.6-3.7,3.9c-1.2,1.4-2.4,2.7-3.5,4.1c-1.1,1.4-2.2,2.6-3,3.7c0.7-1.8,1.6-3.8,2.6-6.1c1-2.3,1.9-4.6,3-7.1
			c1-2.4,2-4.9,3-7.3c0.4-0.8,0.7-1.6,1.1-2.4c0.1,0,0.3,0,0.4,0c1.5-0.1,2.3-0.3,2.7-0.4c0.8-0.1,1.5-0.5,2-1.1
			c0.5-0.5,1-1.1,1.1-1.6c0.1-0.5,0.1-1.1,0-1.5c-0.3-0.4-0.7-0.5-1.5-0.4c-0.4,0.1-1.2,0.3-2.6,0.4c-0.1,0-0.1,0-0.3,0
			c0.8-1.9,1.6-3.7,2.3-5c0.7-1.5,1.4-2.6,1.8-3.3c0.5-0.8,0.7-1.5,0.3-2.2c-0.3-0.7-0.8-1-1.6-1.1c-0.8,0-1.8,0.4-2.9,1.2
			c-1.1,0.8-2.2,2.3-3.3,4.3c-0.5,1.1-1.2,2.6-2.2,4.5c-0.4,0.8-0.8,1.8-1.4,2.7c-1.5,0.3-3.1,0.5-4.9,0.8c-1.6,0.3-3.3,0.5-4.9,0.8
			c0.1-0.3,0.4-0.5,0.5-0.8c0.4-0.8,0.7-1.8,0.5-2.6c-0.1-0.8-0.7-1.5-1.8-1.9c-0.7-0.3-1.2-0.3-1.8,0c-0.4,0.3-0.8,0.7-1.1,1.2
			c-0.3,0.5-0.4,1.2-0.5,1.9c-0.1,0.7-0.1,1.4,0,2c0,0.3,0.1,0.5,0.1,0.7c-2.4,0.4-4.8,0.8-7.1,1.2c-2.7,0.4-5.2,0.8-7.3,1.2
			c0.4-0.5,1-1.4,1.6-2.2c0.5-1,1.2-1.9,1.6-2.9c0.5-1,1-2,1.4-3.1c0.4-1.1,0.5-2.2,0.4-3.1c-0.1-1.2-0.4-2-1-2.4
			c-0.5-0.4-1.2-0.5-2-0.1c-0.8,0.4-1.6,1.2-2.4,2.3c-0.8,1.2-1.6,2.9-2.3,5c-0.3,0.8-0.7,1.9-1.1,3.1c-0.4,1.2-0.8,2.7-1.4,4.3
			l-5.3,1c-0.5,0.1-1,0.3-1.2,0.5c-0.3,0.3-0.4,0.5-0.4,0.8s0.1,0.5,0.4,0.7c0.3,0.1,0.7,0.3,1.2,0.1c0.1,0,0.7-0.1,1.5-0.3
			s1.8-0.3,3-0.4c-0.5,1.9-1.1,3.9-1.8,6c-0.1,0.5-0.3,1-0.4,1.5c-1.5,2.4-3,4.8-4.5,6.9c-1.6,2.2-3,3.8-4.1,5.2
			c-0.3-1-0.7-1.9-1-2.9c-0.4-1-0.7-1.9-1.1-2.9c-0.3-1-0.5-1.9-0.7-3c-0.1-1.1-0.1-2.2,0.1-3.3c0.5-0.4,1.1-0.8,1.5-1.2
			c0.4-0.4,0.7-0.8,1-1.4c0.3-0.5,0.4-1.1,0.4-1.8c-0.1-1.1-0.5-1.8-1.4-1.9c-0.8-0.3-1.6-0.1-2.6,0.4c-1,0.5-1.8,1.5-2.3,2.9
			c-0.4,0.8-0.5,1.6-0.7,2.7c0,0,0,0,0,0.1c-1,1.6-2.2,3.4-3.4,5.2c-1.2,1.8-2.4,3.5-3.8,5.2c-1.2,1.6-2.4,3-3.7,4.2
			c-1.2,1.2-2.2,2-3.1,2.6c0.3-1.4,0.7-2.9,1.2-4.5c0.5-1.6,1.1-3.4,1.9-5c0.7-1.6,1.5-3.3,2.2-4.8c0.8-1.5,1.6-2.7,2.4-3.7
			c0.7-0.8,0.8-1.4,0.4-1.9c-0.4-0.4-1-0.7-1.8-0.5c-0.8,0.1-1.8,0.4-2.9,1.2c-0.1,0.1-0.3,0.3-0.4,0.4l0,0l-0.1,0.1
			c-0.1,0-0.1,0.1-0.3,0.1c-0.1,0.1-0.3,0.3-0.5,0.5c-0.5,0.7-1.1,1.4-1.5,2.3c0,0,0,0,0,0.1l-21.3,34.8c0-0.1,0.3-0.5,0.7-1.5
			c0.4-1,1-2,1.6-3.5c0.7-1.4,1.4-3,2.2-4.9c0.8-1.8,1.6-3.7,2.6-5.6c0.8-1.9,1.8-3.8,2.6-5.8c0.8-1.9,1.6-3.8,2.4-5.4
			c0.7-1.6,1.4-3.1,1.9-4.3s1-2,1.1-2.6c0.4-1.1,0.5-2.2,0.4-3.1c-0.1-1-0.5-1.6-1-2.2c-0.5-0.4-1.1-0.5-1.8-0.3s-1.2,1.1-1.8,2.3
			c-0.3,0.7-0.7,1.9-1.4,3.5c-0.7,1.6-1.4,3.7-2.3,6c-0.8,2.3-1.9,4.9-2.9,7.6c-1.1,2.7-2,5.6-3.1,8.4c-1.1,2.9-2,5.7-3.1,8.4
			c-1,2.7-1.9,5.2-2.7,7.5c-0.8,2.2-1.5,4.1-1.9,5.7c-0.5,1.5-0.8,2.6-1,3.1c-0.4,1.9,0.1,2.3,1.4,1.1c1.4-1.2,3.1-3.8,5.3-7.9
			c1.4-2.3,4.1-6.9,8.3-14c2.9-4.8,6.4-10.5,10.3-17.3c-0.3,1.1-0.4,2-0.5,2.9c-0.3,1.2-0.4,2-0.4,2.7c-0.1,1-0.1,1.8,0,2.4
			c0.3,0.5,0.5,1,1,1.2s1,0.3,1.5,0.3c0.5-0.1,1.1-0.3,1.6-0.7c1.2-0.8,2.4-1.9,3.8-3.3c1.4-1.5,2.7-3,4.1-4.8
			c1.4-1.8,2.7-3.5,4.1-5.4c0.8-1.1,1.5-2.2,2.2-3.3c0.1,0.7,0.4,1.4,0.7,2c0.5,1.1,1.1,2.3,1.6,3.3c0.5,1.1,1.1,2,1.5,3
			c0.4,1,0.5,1.6,0.4,2.3c-1.1,0.8-2.2,1.8-3.1,2.6c-0.8,0.8-1.6,1.6-2.3,2.6c-0.8,1-1.2,1.8-1.5,2.6c-0.3,1.2-0.3,2,0,2.7
			c0.3,0.7,0.8,1,1.5,1c0.7,0,1.6-0.4,2.7-1.1c1.1-0.7,2.2-1.8,3.3-3.1c1-1.2,1.6-2.3,1.9-3.4c0.3-1.1,0.4-2,0.4-3.1
			c1.1-1.1,2.4-2.7,4.2-4.9c0.7-0.8,1.4-1.8,2-2.9c-0.3,1.4-0.7,2.9-1,4.2c-0.4,2-0.8,4.1-1.1,5.8c-0.3,1.9-0.4,3.5-0.4,5
			c0,1.5,0,2.9,0.3,3.8c0.3,1.2,0.8,1.9,1.6,2.2c0.8,0.3,1.6,0,2.6-0.8c0.8-0.7,1.6-1.6,2.6-2.9c1-1.2,1.9-2.6,2.9-4.2
			c1-1.5,1.9-3.3,2.9-5c1-1.8,1.9-3.5,2.9-5.2c0.4-0.7,0.7-1.2,1.1-1.9c-0.3,0.8-0.4,1.5-0.5,2.2c-0.3,1.5-0.5,2.7-0.8,3.9
			c-0.3,1.2-0.4,2-0.4,2.7c-0.1,1-0.1,1.8,0,2.4c0.3,0.5,0.5,1,1,1.2c0.4,0.3,1,0.3,1.5,0.3c0.5-0.1,1.1-0.3,1.6-0.7
			c1.2-0.8,2.4-1.9,3.8-3.3c1.4-1.5,2.7-3,4.1-4.8c1.4-1.8,2.7-3.5,4.1-5.4c1.4-1.9,2.4-3.8,3.5-5.6v-0.1c0,0,0-0.1,0.1-0.1
			c0.4-0.7,0.8-1.4,1.4-2.2c0.4-0.8,0.8-1.6,1.2-2.3c0.4-0.7,0.7-1.4,1-1.9c0.3-0.5,0.4-1,0.5-1.1c-0.4,1-0.8,2-1.2,3.4
			c-0.4,1.4-1,2.7-1.4,4.1c-0.4,1.5-1,2.9-1.4,4.5c-0.4,1.5-1,3-1.4,4.3c-0.4,1.4-0.8,2.7-1.2,3.9c-0.4,1.2-0.7,2.2-1,3
			c-0.4,1.5-0.4,2.2,0.1,2.3c0.5,0.1,1.1-0.4,1.6-1.6c1.1-1.5,2.2-2.9,3.4-4.2c1.2-1.4,2.4-2.7,3.7-3.9c-0.3,1.2-0.4,2.6-0.5,4.2
			c-0.1,1.6-0.3,3.1-0.3,4.8c0,1.5,0,3,0,4.5c0.1,1.4,0.1,2.6,0.4,3.5c0.1,1,0.4,1.8,0.8,2c0.4,0.3,0.8,0.5,1.2,0.4
			c0.4-0.1,1-0.3,1.5-0.7c0.5-0.4,1.1-0.8,1.5-1.4c1.1-1.1,2.3-2.6,3.7-4.3c1.4-1.9,2.7-3.9,4.2-6.1c1.5-2.3,2.9-4.6,4.3-7.2
			c1.5-2.6,2.9-5,4.2-7.5c0.5-0.8,0.8-1.6,1-2.2C402.3,34.8,402.2,34.4,402.1,34.3 M375.8,30.6c-1.1,2.2-2,3.9-3,5.6l0,0
			c-1,1.6-2.2,3.4-3.4,5.2c-1.2,1.8-2.4,3.5-3.8,5.2c-1.2,1.6-2.4,3-3.7,4.2c-1.2,1.2-2.2,2-3.1,2.6c0.3-1.4,0.7-2.9,1.2-4.5
			s1.1-3.4,1.9-5c0.7-1.6,1.5-3.3,2.2-4.8c0.8-1.5,1.6-2.7,2.4-3.7c0.7-0.8,0.8-1.4,0.4-1.9c-0.4-0.4-1-0.7-1.8-0.5
			c-0.8,0.1-1.8,0.4-2.9,1.2c-0.3,0.3-0.7,0.5-1,0.8c0-0.3-0.1-0.5-0.3-0.7c-0.3-0.1-0.5-0.1-1.1,0.3c-0.4,0.3-1,0.8-1.4,1.8
			c-1.4,2.3-2.6,4.9-3.9,7.6c-1.4,2.7-2.7,5.3-4.1,7.7c-1.4,2.4-2.7,4.6-4.1,6.5c-1.4,1.9-2.6,3.3-3.9,4.2c-0.1-0.8-0.1-2,0.1-3.8
			c0.3-1.8,0.7-3.7,1.1-6c0.5-2.2,1.1-4.5,1.8-6.9s1.2-4.8,1.9-6.9c0.7-2.2,1.2-4.2,1.8-6c0.5-1.8,1-3.1,1.2-4.1
			c2.2-0.3,4.5-0.5,7.1-0.8c2.6-0.3,5.3-0.7,7.9-1c2.7-0.3,5.3-0.7,7.9-1c1.8-0.3,3.4-0.4,4.9-0.5C377.6,26.8,376.8,28.7,375.8,30.6
			"/>
	</g>
</g>
</svg>
