<?xml version="1.0" encoding="utf-8"?>
<!-- Generator: Adobe Illustrator 25.4.1, SVG Export Plug-In . SVG Version: 6.00 Build 0)  -->
<svg version="1.1" id="katman_1" xmlns="http://www.w3.org/2000/svg" xmlns:xlink="http://www.w3.org/1999/xlink" x="0px" y="0px"
	 viewBox="0 0 321.9 75.2" style="enable-background:new 0 0 321.9 75.2;" xml:space="preserve">
<style type="text/css">
	.st0{fill:#E53921;}
</style>
<g>
	<path class="st0" d="M46.7,0C20.9,0,0,16.8,0,37.6c0,20.8,20.9,37.6,46.7,37.6c25.8,0,46.7-16.8,46.7-37.6C93.4,16.8,72.5,0,46.7,0
		 M69.2,32.5c-3.1-3.5-6.8-7-11-10.1c-4.2-3.1-8.4-5.7-12.6-7.7c5.1-3.7,10.2-5.9,14.6-6.2c3.2,0.9,6.3,2.2,9.1,3.7
		C72.5,16.4,72.4,24,69.2,32.5 M74.3,59.9c-3.8,5-12.5,5.2-22.4,1.6c3.8-3.1,7.4-7,10.8-11.4c2.9-3.8,5.4-7.8,7.3-11.7
		C76,46.8,78,55,74.3,59.9 M60.3,48.3C56.7,53,52.7,57,48.6,60.1c-4.3-1.9-8.7-4.5-13.1-7.8c-4.4-3.3-8.1-6.9-11.2-10.6
		c1.9-4.8,4.7-9.8,8.4-14.6c3.1-4.1,6.6-7.6,10-10.5c4.4,1.9,9.1,4.6,13.5,8c4.5,3.4,8.4,7.2,11.5,11C66,39.8,63.5,44.1,60.3,48.3
		 M25.6,65.3c-4.6-3.5-5.2-11.2-2.3-20.2c3,3.3,6.6,6.6,10.6,9.6c3.9,3,8,5.4,12,7.4C37.9,67.3,30.2,68.8,25.6,65.3 M17.7,17.2
		c3.7-4.9,12.2-5.2,22-1.7c-3.2,2.9-6.3,6.2-9.2,10c-3.4,4.5-6.2,9.1-8.2,13.6C16.1,30.6,13.9,22.2,17.7,17.2 M52.5,6.9
		c-3.3,1.5-6.7,3.7-10.1,6.4c-5-2.1-9.8-3.3-14.1-3.7c5.4-2,11.3-3.1,17.7-3.1C48.2,6.4,50.4,6.6,52.5,6.9 M4.8,38.5
		c0-6.6,2.6-12.7,6.9-17.8c-0.4,6.2,3,14,9.2,21.6c-3,7.7-3.8,14.9-2.2,20.2C10.2,56.6,4.8,48.1,4.8,38.5 M46,70.7
		c-2.9,0-5.8-0.3-8.6-0.7c3.7-1.3,7.7-3.4,11.7-6.3c5.2,2.2,10.2,3.5,14.6,3.9C58.3,69.5,52.3,70.7,46,70.7 M80.3,56.4
		c0.4-6-2.8-13.7-8.8-21.2c3.1-7.1,4.4-13.9,3.7-19.4c7.5,5.8,12.1,13.9,12.1,22.7C87.2,45.1,84.6,51.3,80.3,56.4"/>
	<g>
		<path d="M112.8,17.4c0.2,0.1,0.5,0.2,0.8,0.1l44-6.6c0.6-0.1,1-0.4,1.2-0.8c0.2-0.5,0.3-0.9,0.2-1.5c-0.1-0.5-0.3-0.9-0.7-1.3
			c-0.4-0.4-0.8-0.5-1.3-0.4c-0.1,0-0.7,0.2-1.6,0.3c-0.9,0.2-2.1,0.4-3.5,0.7c-1.4,0.3-3.1,0.6-5,1c-1.9,0.4-3.8,0.8-5.9,1.2
			c-2.1,0.4-4.2,0.8-6.4,1.3c-2.2,0.4-4.3,0.9-6.3,1.3c-2.1,0.4-4,0.8-5.8,1.2c-1.8,0.4-3.5,0.7-4.9,1c-1.4,0.3-2.5,0.5-3.4,0.7
			c-0.8,0.2-1.3,0.3-1.4,0.3c-0.3,0-0.5,0.2-0.5,0.4c-0.1,0.2-0.1,0.4,0,0.6C112.4,17.1,112.6,17.3,112.8,17.4"/>
		<path d="M151.9,53.6c-0.4-0.4-0.8-0.5-1.3-0.4c-0.1,0-0.7,0.2-1.6,0.3c-0.9,0.2-2.1,0.4-3.5,0.7c-1.4,0.3-3.1,0.6-5,1
			c-1.9,0.4-3.8,0.8-5.9,1.2c-2.1,0.4-4.2,0.8-6.4,1.3c-2.2,0.4-4.3,0.9-6.3,1.3c-2.1,0.4-4,0.8-5.8,1.2c-0.2,0-0.4,0.1-0.6,0.1
			l5.7-20.4l21.9-3.3c0.6-0.1,1-0.4,1.2-0.8c0.2-0.5,0.3-0.9,0.2-1.5c-0.1-0.5-0.3-0.9-0.7-1.3c-0.4-0.4-0.8-0.5-1.3-0.4
			c-0.1,0-0.7,0.2-1.6,0.3c-0.9,0.2-2.1,0.4-3.5,0.7c-1.4,0.3-3.1,0.6-5,1c-1.9,0.4-3.8,0.8-5.9,1.2c-1.4,0.3-2.9,0.6-4.4,0.9
			l5-18.1c0.2-0.6,0.1-1.2-0.2-1.6c-0.3-0.5-0.7-0.8-1.2-1c-0.5-0.2-1-0.2-1.5,0c-0.5,0.2-0.8,0.5-0.9,1.1c0,0.2-0.2,0.8-0.4,1.8
			c-0.2,1-0.5,2.3-0.9,3.9c-0.4,1.6-0.8,3.5-1.3,5.6c-0.5,2.1-1,4.3-1.5,6.6c-0.2,0.8-0.4,1.6-0.6,2.4c-1.6,0.3-3.2,0.7-4.8,1
			c-2.1,0.4-4,0.8-5.8,1.2c-1.8,0.4-3.5,0.7-4.9,1c-1.4,0.3-2.5,0.5-3.4,0.7c-0.8,0.2-1.3,0.3-1.4,0.3c-0.3,0-0.5,0.2-0.5,0.4
			c-0.1,0.2-0.1,0.4,0,0.6c0.1,0.2,0.2,0.4,0.5,0.5c0.2,0.1,0.5,0.2,0.8,0.1l18.9-2.8c-0.1,0.6-0.3,1.2-0.4,1.8
			c-0.6,2.4-1.1,4.8-1.6,7.1c-0.5,2.3-1,4.5-1.5,6.6c-0.4,1.8-0.8,3.5-1.2,4.9c-0.7,0.1-1.3,0.3-1.9,0.4c-1.4,0.3-2.5,0.5-3.4,0.7
			c-0.8,0.2-1.3,0.3-1.4,0.3c-0.3,0-0.5,0.2-0.5,0.4c-0.1,0.2-0.1,0.4,0,0.6c0.1,0.2,0.2,0.4,0.5,0.5c0.2,0.1,0.5,0.2,0.8,0.1
			l5.5-0.8c-0.2,0.8-0.4,1.5-0.5,2.1c-0.2,0.9-0.3,1.5-0.3,1.6c-0.1,0.3,0,0.6,0.1,0.7c0.2,0.2,0.3,0.3,0.6,0.3c0.2,0,0.4,0,0.7-0.2
			c0.2-0.1,0.4-0.4,0.5-0.7l1.2-4.2l36.4-5.5c0.6-0.1,1-0.4,1.2-0.8c0.2-0.5,0.3-0.9,0.2-1.5C152.5,54.4,152.3,53.9,151.9,53.6"/>
		<path d="M240.1,54.3c0.3,0,0.6-0.3,0.8-0.7c0.2-0.4,0.4-0.9,0.5-1.4c0.1-0.5,0.1-0.9,0-1.3c-0.1-0.4-0.2-0.5-0.5-0.5
			c-0.1,0-0.4,0.1-0.9,0.2c-0.5,0.1-1.1,0.2-1.9,0.4c-0.8,0.2-1.7,0.4-2.7,0.6c-1,0.2-2.1,0.4-3.2,0.7c-1.1,0.2-2.2,0.5-3.4,0.7
			c-1.2,0.2-2.3,0.5-3.4,0.7c-0.9,0.2-1.8,0.4-2.6,0.5l12.2-43.9c0.2-0.6,0.1-1.2-0.2-1.6c-0.3-0.5-0.7-0.8-1.2-1
			c-0.5-0.2-1-0.2-1.5,0c-0.5,0.2-0.8,0.5-0.9,1.1c0,0.2-0.2,0.8-0.4,1.8c-0.2,1-0.5,2.3-0.9,3.9c-0.4,1.6-0.8,3.5-1.3,5.6
			c-0.5,2.1-1,4.3-1.5,6.6c-0.5,2.3-1.1,4.7-1.6,7.1c-0.6,2.4-1.1,4.8-1.6,7.1c-0.5,2.3-1,4.5-1.5,6.6c-0.5,2.1-0.9,3.9-1.3,5.4
			c-0.1,0.6-0.3,1.2-0.4,1.8c-0.3,0.1-0.7,0.1-1,0.2c-0.7,0.2-1.3,0.3-1.8,0.4c-0.5,0.1-0.7,0.1-0.7,0.2c-0.2,0-0.3,0.1-0.4,0.3
			c-0.1,0.2-0.1,0.4-0.2,0.6c0,0.2,0,0.4,0.1,0.6c0.1,0.2,0.2,0.2,0.3,0.2l3.2-0.4c-0.2,0.9-0.3,1.4-0.3,1.5c-0.1,0.3,0,0.6,0.1,0.7
			c0.2,0.2,0.3,0.3,0.6,0.3c0.2,0,0.4,0,0.7-0.2c0.2-0.1,0.4-0.4,0.5-0.7l0.5-2L240.1,54.3z"/>
		<path d="M211.9,32.2c-0.3,0.2-0.7,0.6-1.1,1.2l-7.6,10.2c0.1-0.8,0.3-1.6,0.6-2.6c0.2-0.8,0.5-1.8,0.8-2.9
			c0.3-1.1,0.8-2.4,1.3-3.7c0.3-0.9,0.5-1.5,0.5-2.1c0-0.5-0.1-0.9-0.4-1.1c-0.3-0.2-0.7-0.2-1.2-0.1c-0.5,0.2-1.1,0.5-1.7,1.1
			c-0.3,0.3-0.7,0.7-1.2,1.1c-0.5,0.4-0.9,1-1.5,1.5c-0.5,0.6-1.1,1.1-1.6,1.7c-0.6,0.6-1.1,1.2-1.6,1.8c-1.2,1.4-2.5,2.9-3.9,4.4
			c0.7-1.4,1.4-2.7,2.1-4.1c0.6-1.2,1.2-2.4,1.9-3.6c0.7-1.3,1.3-2.4,1.8-3.4c0.5-1,0.7-1.7,0.5-2.1c-0.2-0.5-0.5-0.7-1-0.6
			c-0.5,0-1.1,0.3-1.7,0.7c-0.6,0.5-1.1,1.1-1.4,1.9c-0.3,0.7-0.5,1.3-0.7,2c-0.7,1.2-1.4,2.4-2.2,3.6c-0.8,1.3-1.6,2.5-2.5,3.6
			c-0.8,1.1-1.7,2.2-2.5,3.2c-0.8,1-1.6,1.8-2.3,2.5c-0.7,0.7-1.4,1.2-2,1.5c-0.6,0.3-1.1,0.5-1.4,0.3c-0.2-0.1-0.4-0.3-0.5-0.6
			c-0.1-0.3-0.1-0.8-0.1-1.4c0-0.6,0.1-1.2,0.2-1.9c0.1-0.7,0.3-1.5,0.5-2.2c0.4,0.4,0.9,0.6,1.7,0.6c0.9-0.1,1.8-0.5,2.6-1.2
			c0.8-0.7,1.5-1.7,2.1-2.8c0.6-1.1,1-2.3,1.3-3.6c0.3-1.3,0.4-2.5,0.3-3.7c-0.1-0.8-0.3-1.5-0.5-2.1c-0.3-0.6-0.7-1-1.1-1.2
			c-0.5-0.2-1-0.3-1.5-0.2c-0.6,0.1-1.2,0.5-1.8,1c-0.8,0.7-1.5,1.6-2.2,2.9c-0.2,0.4-0.4,0.9-0.7,1.4c-1.1,1.9-2.2,3.6-3.4,5.1
			c-1.2,1.6-2.2,2.8-3,3.8c-0.2-0.7-0.5-1.4-0.7-2.1c-0.3-0.7-0.5-1.4-0.8-2.1c-0.2-0.7-0.4-1.4-0.5-2.2c-0.1-0.8-0.1-1.6,0.1-2.4
			c0.4-0.3,0.8-0.6,1.1-0.9c0.3-0.3,0.5-0.6,0.7-1c0.2-0.4,0.3-0.8,0.3-1.3c-0.1-0.8-0.4-1.2-1-1.4c-0.6-0.2-1.2-0.1-1.9,0.3
			c-0.7,0.4-1.3,1.1-1.7,2.1c-0.3,0.6-0.4,1.2-0.5,2c0,0,0,0,0,0.1c-0.4,0.7-1,1.6-1.6,2.7c-0.7,1.1-1.4,2.3-2.1,3.6
			c-0.8,1.3-1.6,2.6-2.4,3.9c-0.8,1.3-1.6,2.6-2.4,3.7c-0.8,1.1-1.5,2.1-2.1,3c-0.7,0.8-1.2,1.4-1.7,1.6c-0.1-1.1-0.2-2.3-0.1-3.7
			c0.1-1.4,0.2-2.9,0.3-4.3c0.2-1.4,0.4-2.8,0.7-4.1c0.3-1.3,0.7-2.4,1.1-3.2c1.5-1.3,3-2.5,4.5-3.5c1.5-1,2.9-1.8,4.2-2.5
			c0.5-0.2,0.6-0.5,0.5-0.9c-0.1-0.4-0.5-0.7-1.1-0.9c-0.6-0.2-1.3-0.2-2.2,0c-0.9,0.2-1.9,0.7-3,1.6c-0.7,0.6-1.5,1.4-2.4,2.3
			c-0.9,0.9-1.8,1.9-2.7,2.9c-0.9,1-1.8,2-2.6,3c-0.8,1-1.6,1.9-2.2,2.7c0.5-1.3,1.2-2.8,1.9-4.5c0.7-1.7,1.4-3.4,2.2-5.2
			c0.7-1.8,1.5-3.6,2.2-5.4c0.7-1.8,1.5-3.4,2.1-4.9c0.7-1.5,1.3-2.8,1.8-3.9s1-1.9,1.3-2.4c0.4-0.6,0.5-1.1,0.2-1.6
			c-0.2-0.5-0.6-0.7-1.2-0.8c-0.6,0-1.3,0.3-2.1,0.9c-0.8,0.6-1.6,1.7-2.4,3.2c-0.4,0.8-0.9,1.9-1.6,3.3c-0.7,1.4-1.4,2.9-2.2,4.5
			c-0.8,1.6-1.6,3.2-2.4,4.7c-0.8,1.6-1.5,2.9-2.2,4.1c-0.3,0.6-0.5,1.1-0.6,1.5c-0.1,0.4,0,0.7,0.2,0.8c0.2,0.1,0.4,0.1,0.7-0.1
			c0.3-0.2,0.7-0.7,1.2-1.4c0.3-0.5,0.6-1,1-1.6c0.3-0.6,0.6-1.2,0.9-1.7c0.3-0.5,0.5-1,0.7-1.5c0.2-0.4,0.3-0.7,0.4-0.8
			c-0.3,0.7-0.6,1.5-0.9,2.5c-0.3,1-0.7,2-1,3c-0.3,1.1-0.7,2.1-1,3.3c-0.3,1.1-0.7,2.2-1,3.2c-0.3,1-0.6,2-0.9,2.9
			c-0.3,0.9-0.5,1.6-0.7,2.2c-0.3,1.1-0.3,1.6,0.1,1.7c0.4,0.1,0.8-0.3,1.2-1.2c0.8-1.1,1.6-2.1,2.5-3.1c0.9-1,1.8-2,2.7-2.9
			c-0.2,0.9-0.3,1.9-0.4,3.1c-0.1,1.2-0.2,2.3-0.2,3.5c0,1.1,0,2.2,0,3.3c0.1,1,0.1,1.9,0.3,2.6c0.1,0.7,0.3,1.3,0.6,1.5
			c0.3,0.3,0.6,0.4,0.9,0.3c0.3-0.1,0.7-0.2,1.1-0.5c0.4-0.3,0.8-0.6,1.1-1c0.8-0.8,1.7-1.9,2.7-3.2c1-1.4,2-2.9,3.1-4.5
			c1.1-1.7,2.1-3.4,3.2-5.3c0.7-1.2,1.4-2.4,2.1-3.6c0.1,0.4,0.3,0.9,0.5,1.3c0.4,0.8,0.8,1.6,1.2,2.4c0.4,0.8,0.8,1.5,1.1,2.2
			c0.3,0.7,0.4,1.2,0.3,1.7c-0.8,0.6-1.6,1.3-2.3,1.9c-0.6,0.6-1.2,1.2-1.7,1.9c-0.6,0.7-0.9,1.3-1.1,1.9c-0.2,0.9-0.2,1.5,0,2
			c0.2,0.5,0.6,0.7,1.1,0.7c0.5,0,1.2-0.3,2-0.8c0.8-0.5,1.6-1.3,2.4-2.3c0.7-0.9,1.2-1.7,1.4-2.5c0.2-0.8,0.3-1.5,0.3-2.3
			c0.8-0.8,1.8-2,3.1-3.6c0.3-0.3,0.5-0.7,0.8-1.1c-0.1,0.4-0.2,0.8-0.3,1.2c-0.3,1.6-0.5,3.1-0.5,4.4c0,1.3,0.1,2.4,0.5,3.3
			c0.3,0.9,0.9,1.4,1.6,1.4c1.1,0.1,2.3-0.2,3.5-1.1c1.2-0.9,2.5-2,3.7-3.5c1.1-1.2,2.1-2.7,3.2-4.2c-0.1,0.3-0.2,0.6-0.4,0.9
			c-0.5,1.2-0.9,2.3-1.2,3.1c-0.3,0.8-0.6,1.5-0.9,2.1c-0.3,0.6-0.4,1.1-0.4,1.6c0,0.5,0.1,0.8,0.3,1c0.2,0.2,0.5,0.1,0.9-0.2
			c0.4-0.3,0.9-0.9,1.5-1.8c0.5-0.9,1.2-1.7,1.9-2.7c0.7-0.9,1.6-1.9,2.4-2.8c0.9-0.9,1.8-1.8,2.7-2.6c1-0.8,1.9-1.6,2.8-2.2
			c-0.1,0.6-0.2,1.3-0.3,1.9c-0.1,0.6-0.1,1.2-0.2,1.9c-0.1,0.7-0.1,1.3,0,1.9c0.1,1.1,0.3,1.8,0.6,2.2c0.3,0.4,0.7,0.6,1.1,0.5
			c0.4-0.1,0.8-0.3,1.3-0.7c0.4-0.4,0.8-0.9,1.2-1.4c0.2-0.3,0.4-0.6,0.7-1c0.3-0.4,0.6-0.9,1-1.4c0.4-0.5,0.7-1,1.2-1.6
			c0.4-0.6,0.8-1.1,1.2-1.6c0.9-1.3,1.9-2.6,2.9-4.1c0.4-0.6,0.6-1.1,0.7-1.5c0.1-0.4,0-0.7-0.2-0.8
			C212.5,31.9,212.2,31.9,211.9,32.2 M184.4,35.6c0.4-0.7,0.7-1.3,1.1-1.8c0.4-0.5,0.8-0.9,1.2-1.2c0.3,1.1,0.3,2.2,0.1,3.3
			c-0.2,1.1-0.5,2.1-1,2.9c-0.5,0.8-1,1.4-1.6,1.7c-0.6,0.3-1.2,0.3-1.7-0.1c0.3-0.8,0.5-1.6,0.9-2.5
			C183.7,37.1,184.1,36.3,184.4,35.6"/>
		<path d="M238.7,46.6c0.5,0.3,1.1,0.3,1.8,0c0.6-0.3,1.3-0.7,1.9-1.3c0.6-0.6,1.2-1.4,1.9-2.3c0.6-0.9,1.1-1.9,1.6-2.9
			c0.5-1,0.9-2,1.2-3.1c0.3-1,0.5-2,0.5-2.9c0.1-0.9,0-1.7-0.3-2.3c-0.2-0.7-0.7-1.1-1.3-1.4c-0.9-0.3-1.8-0.2-2.7,0.3
			c-0.9,0.6-1.7,1.4-2.5,2.5c-0.8,1.1-1.5,2.3-2,3.7c-0.6,1.4-1,2.8-1.2,4.1c-0.2,1.3-0.3,2.5-0.1,3.5
			C237.5,45.6,238,46.3,238.7,46.6 M239.1,41.7c0.2-0.8,0.4-1.6,0.8-2.5c0.3-0.9,0.7-1.6,1.1-2.3c0.4-0.7,0.8-1.2,1.3-1.6
			c0.4-0.4,0.9-0.5,1.2-0.4c0.5,0.2,0.7,0.6,0.8,1.2c0.1,0.6,0,1.3-0.2,2.1c-0.2,0.8-0.5,1.6-0.9,2.5c-0.4,0.9-0.8,1.7-1.3,2.3
			c-0.5,0.7-0.9,1.2-1.4,1.6c-0.5,0.4-0.9,0.5-1.2,0.3c-0.3-0.2-0.5-0.5-0.6-1.1C238.8,43.2,238.9,42.5,239.1,41.7"/>
		<path d="M255.1,25.2c0.4,0.1,0.9,0,1.6-0.3c0.7-0.4,1.3-0.8,1.8-1.4c0.5-0.6,0.9-1.2,1-1.9c0.1-0.7-0.2-1.3-1-1.9
			c-0.5-0.3-1-0.5-1.4-0.3c-0.4,0.1-0.8,0.3-1.1,0.7c-0.3,0.4-0.6,0.9-0.8,1.4c-0.2,0.6-0.4,1.1-0.4,1.6c-0.1,0.5-0.1,1,0,1.4
			C254.7,24.9,254.9,25.1,255.1,25.2"/>
		<path d="M264.3,25.1c0.3,0,0.8-0.2,1.3-0.7c0.5-0.5,0.9-1,1.2-1.6c0.3-0.6,0.5-1.3,0.4-1.9c-0.1-0.6-0.5-1.1-1.3-1.4
			c-0.5-0.2-0.9-0.2-1.3,0c-0.3,0.2-0.6,0.5-0.8,0.9c-0.2,0.4-0.3,0.9-0.4,1.4c-0.1,0.5-0.1,1,0,1.5c0.1,0.5,0.1,0.9,0.3,1.2
			C263.9,24.9,264.1,25,264.3,25.1"/>
		<path d="M321.7,32.1c-0.2-0.1-0.4-0.1-0.8,0.2c-0.3,0.2-0.7,0.6-1.1,1.2c-0.4,0.7-1,1.6-1.6,2.7c-0.7,1.1-1.4,2.3-2.1,3.6
			c-0.8,1.3-1.6,2.6-2.4,3.9c-0.8,1.3-1.6,2.6-2.4,3.7c-0.8,1.1-1.5,2.1-2.1,3c-0.7,0.8-1.2,1.4-1.7,1.6c-0.1-1.1-0.2-2.3-0.1-3.7
			c0.1-1.4,0.2-2.9,0.3-4.3c0.2-1.4,0.4-2.8,0.7-4.1c0.3-1.3,0.7-2.4,1.1-3.2c1.5-1.3,3-2.5,4.5-3.5c1.5-1,2.9-1.8,4.2-2.5
			c0.5-0.2,0.6-0.5,0.5-0.9c-0.1-0.4-0.5-0.7-1.1-0.9c-0.6-0.2-1.3-0.2-2.2,0c-0.9,0.2-1.9,0.7-3,1.6c-0.7,0.6-1.5,1.4-2.4,2.3
			c-0.9,0.9-1.8,1.9-2.7,2.9c-0.9,1-1.8,2-2.6,3c-0.8,1-1.6,1.9-2.2,2.7c0.5-1.3,1.2-2.8,1.9-4.5c0.7-1.7,1.4-3.4,2.2-5.2
			c0.7-1.8,1.5-3.6,2.2-5.4c0.3-0.6,0.5-1.2,0.8-1.8c0.1,0,0.2,0,0.3,0c1.1-0.1,1.7-0.2,2-0.3c0.6-0.1,1.1-0.4,1.5-0.8
			c0.4-0.4,0.7-0.8,0.8-1.2c0.1-0.4,0.1-0.8,0-1.1c-0.2-0.3-0.5-0.4-1.1-0.3c-0.3,0.1-0.9,0.2-1.9,0.3c-0.1,0-0.1,0-0.2,0
			c0.6-1.4,1.2-2.7,1.7-3.7c0.5-1.1,1-1.9,1.3-2.4c0.4-0.6,0.5-1.1,0.2-1.6c-0.2-0.5-0.6-0.7-1.2-0.8c-0.6,0-1.3,0.3-2.1,0.9
			c-0.8,0.6-1.6,1.7-2.4,3.2c-0.4,0.8-0.9,1.9-1.6,3.3c-0.3,0.6-0.6,1.3-1,2c-1.1,0.2-2.3,0.4-3.6,0.6c-1.2,0.2-2.4,0.4-3.6,0.6
			c0.1-0.2,0.3-0.4,0.4-0.6c0.3-0.6,0.5-1.3,0.4-1.9c-0.1-0.6-0.5-1.1-1.3-1.4c-0.5-0.2-0.9-0.2-1.3,0c-0.3,0.2-0.6,0.5-0.8,0.9
			c-0.2,0.4-0.3,0.9-0.4,1.4c-0.1,0.5-0.1,1,0,1.5c0,0.2,0.1,0.4,0.1,0.5c-1.8,0.3-3.5,0.6-5.2,0.9c-2,0.3-3.8,0.6-5.4,0.9
			c0.3-0.4,0.7-1,1.2-1.6c0.4-0.7,0.9-1.4,1.2-2.1c0.4-0.7,0.7-1.5,1-2.3c0.3-0.8,0.4-1.6,0.3-2.3c-0.1-0.9-0.3-1.5-0.7-1.8
			c-0.4-0.3-0.9-0.4-1.5-0.1c-0.6,0.3-1.2,0.9-1.8,1.7c-0.6,0.9-1.2,2.1-1.7,3.7c-0.2,0.6-0.5,1.4-0.8,2.3c-0.3,0.9-0.6,2-1,3.2
			l-3.9,0.7c-0.4,0.1-0.7,0.2-0.9,0.4c-0.2,0.2-0.3,0.4-0.3,0.6c0,0.2,0.1,0.4,0.3,0.5c0.2,0.1,0.5,0.2,0.9,0.1
			c0.1,0,0.5-0.1,1.1-0.2c0.6-0.1,1.3-0.2,2.2-0.3c-0.4,1.4-0.8,2.9-1.3,4.4c-0.1,0.4-0.2,0.7-0.3,1.1c-1.1,1.8-2.2,3.5-3.3,5.1
			c-1.2,1.6-2.2,2.8-3,3.8c-0.2-0.7-0.5-1.4-0.7-2.1c-0.3-0.7-0.5-1.4-0.8-2.1c-0.2-0.7-0.4-1.4-0.5-2.2c-0.1-0.8-0.1-1.6,0.1-2.4
			c0.4-0.3,0.8-0.6,1.1-0.9c0.3-0.3,0.5-0.6,0.7-1c0.2-0.4,0.3-0.8,0.3-1.3c-0.1-0.8-0.4-1.3-1-1.4c-0.6-0.2-1.2-0.1-1.9,0.3
			c-0.7,0.4-1.3,1.1-1.7,2.1c-0.3,0.6-0.4,1.2-0.5,2c0,0,0,0,0,0.1c-0.7,1.2-1.6,2.5-2.5,3.8c-0.9,1.3-1.8,2.6-2.8,3.8
			c-0.9,1.2-1.8,2.2-2.7,3.1c-0.9,0.9-1.6,1.5-2.3,1.9c0.2-1,0.5-2.1,0.9-3.3c0.4-1.2,0.8-2.5,1.4-3.7c0.5-1.2,1.1-2.4,1.6-3.5
			c0.6-1.1,1.2-2,1.8-2.7c0.5-0.6,0.6-1,0.3-1.4c-0.3-0.3-0.7-0.5-1.3-0.4c-0.6,0.1-1.3,0.3-2.1,0.9c-0.1,0.1-0.2,0.2-0.3,0.3
			c0,0,0,0,0,0c0,0-0.1,0.1-0.1,0.1c-0.1,0-0.1,0.1-0.2,0.1c-0.1,0.1-0.2,0.2-0.4,0.4c-0.4,0.5-0.8,1-1.1,1.7c0,0,0,0,0,0.1
			l-15.7,25.6c0-0.1,0.2-0.4,0.5-1.1c0.3-0.7,0.7-1.5,1.2-2.6c0.5-1,1-2.2,1.6-3.6c0.6-1.3,1.2-2.7,1.9-4.1c0.6-1.4,1.3-2.8,1.9-4.3
			c0.6-1.4,1.2-2.8,1.8-4c0.5-1.2,1-2.3,1.4-3.2c0.4-0.9,0.7-1.5,0.8-1.9c0.3-0.8,0.4-1.6,0.3-2.3c-0.1-0.7-0.4-1.2-0.7-1.6
			c-0.4-0.3-0.8-0.4-1.3-0.2c-0.5,0.2-0.9,0.8-1.3,1.7c-0.2,0.5-0.5,1.4-1,2.6c-0.5,1.2-1,2.7-1.7,4.4c-0.6,1.7-1.4,3.6-2.1,5.6
			c-0.8,2-1.5,4.1-2.3,6.2c-0.8,2.1-1.5,4.2-2.3,6.2c-0.7,2-1.4,3.8-2,5.5c-0.6,1.6-1.1,3-1.4,4.2c-0.4,1.1-0.6,1.9-0.7,2.3
			c-0.3,1.4,0.1,1.7,1,0.8c1-0.9,2.3-2.8,3.9-5.8c1-1.7,3-5.1,6.1-10.3c2.1-3.5,4.7-7.7,7.6-12.7c-0.2,0.8-0.3,1.5-0.4,2.1
			c-0.2,0.9-0.3,1.5-0.3,2c-0.1,0.7-0.1,1.3,0,1.8c0.2,0.4,0.4,0.7,0.7,0.9c0.3,0.2,0.7,0.2,1.1,0.2c0.4-0.1,0.8-0.2,1.2-0.5
			c0.9-0.6,1.8-1.4,2.8-2.4c1-1.1,2-2.2,3-3.5c1-1.3,2-2.6,3-4c0.6-0.8,1.1-1.6,1.6-2.4c0.1,0.5,0.3,1,0.5,1.5
			c0.4,0.8,0.8,1.7,1.2,2.4c0.4,0.8,0.8,1.5,1.1,2.2c0.3,0.7,0.4,1.2,0.3,1.7c-0.8,0.6-1.6,1.3-2.3,1.9c-0.6,0.6-1.2,1.2-1.7,1.9
			c-0.6,0.7-0.9,1.3-1.1,1.9c-0.2,0.9-0.2,1.5,0,2c0.2,0.5,0.6,0.7,1.1,0.7s1.2-0.3,2-0.8c0.8-0.5,1.6-1.3,2.4-2.3
			c0.7-0.9,1.2-1.7,1.4-2.5c0.2-0.8,0.3-1.5,0.3-2.3c0.8-0.8,1.8-2,3.1-3.6c0.5-0.6,1-1.3,1.5-2.1c-0.2,1-0.5,2.1-0.7,3.1
			c-0.3,1.5-0.6,3-0.8,4.3c-0.2,1.4-0.3,2.6-0.3,3.7c0,1.1,0,2.1,0.2,2.8c0.2,0.9,0.6,1.4,1.2,1.6c0.6,0.2,1.2,0,1.9-0.6
			c0.6-0.5,1.2-1.2,1.9-2.1c0.7-0.9,1.4-1.9,2.1-3.1c0.7-1.1,1.4-2.4,2.1-3.7c0.7-1.3,1.4-2.6,2.1-3.8c0.3-0.5,0.5-0.9,0.8-1.4
			c-0.2,0.6-0.3,1.1-0.4,1.6c-0.2,1.1-0.4,2-0.6,2.9c-0.2,0.9-0.3,1.5-0.3,2c-0.1,0.7-0.1,1.3,0,1.8c0.2,0.4,0.4,0.7,0.7,0.9
			c0.3,0.2,0.7,0.2,1.1,0.2c0.4-0.1,0.8-0.2,1.2-0.5c0.9-0.6,1.8-1.4,2.8-2.4c1-1.1,2-2.2,3-3.5c1-1.3,2-2.6,3-4
			c1-1.4,1.8-2.8,2.6-4.1c0,0,0-0.1,0-0.1c0,0,0-0.1,0.1-0.1c0.3-0.5,0.6-1,1-1.6c0.3-0.6,0.6-1.2,0.9-1.7c0.3-0.5,0.5-1,0.7-1.4
			c0.2-0.4,0.3-0.7,0.4-0.8c-0.3,0.7-0.6,1.5-0.9,2.5c-0.3,1-0.7,2-1,3c-0.3,1.1-0.7,2.1-1,3.3c-0.3,1.1-0.7,2.2-1,3.2
			c-0.3,1-0.6,2-0.9,2.9c-0.3,0.9-0.5,1.6-0.7,2.2c-0.3,1.1-0.3,1.6,0.1,1.7c0.4,0.1,0.8-0.3,1.2-1.2c0.8-1.1,1.6-2.1,2.5-3.1
			c0.9-1,1.8-2,2.7-2.9c-0.2,0.9-0.3,1.9-0.4,3.1c-0.1,1.2-0.2,2.3-0.2,3.5c0,1.1,0,2.2,0,3.3c0.1,1,0.1,1.9,0.3,2.6
			c0.1,0.7,0.3,1.3,0.6,1.5s0.6,0.4,0.9,0.3c0.3-0.1,0.7-0.2,1.1-0.5c0.4-0.3,0.8-0.6,1.1-1c0.8-0.8,1.7-1.9,2.7-3.2
			c1-1.4,2-2.9,3.1-4.5c1.1-1.7,2.1-3.4,3.2-5.3c1.1-1.9,2.1-3.7,3.1-5.5c0.4-0.6,0.6-1.2,0.7-1.6C321.9,32.5,321.8,32.2,321.7,32.1
			 M302.4,29.4c-0.8,1.6-1.5,2.9-2.2,4.1c0,0,0,0,0,0c-0.7,1.2-1.6,2.5-2.5,3.8c-0.9,1.3-1.8,2.6-2.8,3.8c-0.9,1.2-1.8,2.2-2.7,3.1
			c-0.9,0.9-1.6,1.5-2.3,1.9c0.2-1,0.5-2.1,0.9-3.3c0.4-1.2,0.8-2.5,1.4-3.7c0.5-1.2,1.1-2.4,1.6-3.5c0.6-1.1,1.2-2,1.8-2.7
			c0.5-0.6,0.6-1,0.3-1.4c-0.3-0.3-0.7-0.5-1.3-0.4c-0.6,0.1-1.3,0.3-2.1,0.9c-0.2,0.2-0.5,0.4-0.7,0.6c0-0.2-0.1-0.4-0.2-0.5
			c-0.2-0.1-0.4-0.1-0.8,0.2c-0.3,0.2-0.7,0.6-1,1.3c-1,1.7-1.9,3.6-2.9,5.6c-1,2-2,3.9-3,5.7c-1,1.8-2,3.4-3,4.8
			c-1,1.4-1.9,2.4-2.9,3.1c-0.1-0.6-0.1-1.5,0.1-2.8c0.2-1.3,0.5-2.7,0.8-4.4c0.4-1.6,0.8-3.3,1.3-5.1c0.5-1.8,0.9-3.5,1.4-5.1
			c0.5-1.6,0.9-3.1,1.3-4.4c0.4-1.3,0.7-2.3,0.9-3c1.6-0.2,3.3-0.4,5.2-0.6c1.9-0.2,3.9-0.5,5.8-0.7c2-0.2,3.9-0.5,5.8-0.7
			c1.3-0.2,2.5-0.3,3.6-0.4C303.7,26.6,303.1,28,302.4,29.4"/>
	</g>
</g>
</svg>
